<svg xmlns="http://www.w3.org/2000/svg" viewBox="0 0 400 400" width="400" height="400">
  

  
  <path d="M 120 280 L 200 120" stroke="#1a3a52" stroke-width="5" fill="none" stroke-linecap="round" />
  <path d="M 280 280 L 200 120" stroke="#1a3a52" stroke-width="5" fill="none" stroke-linecap="round" />

  
  <polygon points="200,70 204,110 200,120 196,110" fill="#1a3a52" />
  <polygon points="200,170 204,130 200,120 196,130" fill="#1a3a52" />
  <polygon points="150,120 192,117 200,120 192,123" fill="#1a3a52" />
  <polygon points="250,120 208,117 200,120 208,123" fill="#1a3a52" />
  <circle cx="200" cy="120" r="6" fill="#4a7c9e" />
  <circle cx="200" cy="120" r="3" fill="#ffffff" />

  
  <path d="M 100 230 Q 150 190 200 210 Q 250 230 300 190" stroke="#1a3a52" stroke-width="3.5" fill="none" stroke-linecap="round" />

  
  <g id="polaris-text"><path d="M1258 985Q1258 785 1127.5 667.0Q997 549 773 549H359V0H168V1409H761Q998 1409 1128.0 1298.0Q1258 1187 1258 985ZM1066 983Q1066 1256 738 1256H359V700H746Q1066 700 1066 983Z" transform="translate(131.32,302.00) scale(0.010742,-0.010742)" fill="#1a3a52" /><path d="M1495 711Q1495 490 1410.5 324.0Q1326 158 1168.0 69.0Q1010 -20 795 -20Q578 -20 420.5 68.0Q263 156 180.0 322.5Q97 489 97 711Q97 1049 282.0 1239.5Q467 1430 797 1430Q1012 1430 1170.0 1344.5Q1328 1259 1411.5 1096.0Q1495 933 1495 711ZM1300 711Q1300 974 1168.5 1124.0Q1037 1274 797 1274Q555 1274 423.0 1126.0Q291 978 291 711Q291 446 424.5 290.5Q558 135 795 135Q1039 135 1169.5 285.5Q1300 436 1300 711Z" transform="translate(152.99,302.00) scale(0.010742,-0.010742)" fill="#1a3a52" /><path d="M168 0V1409H359V156H1071V0Z" transform="translate(177.10,302.00) scale(0.010742,-0.010742)" fill="#1a3a52" /><path d="M1167 0 1006 412H364L202 0H4L579 1409H796L1362 0ZM685 1265 676 1237Q651 1154 602 1024L422 561H949L768 1026Q740 1095 712 1182Z" transform="translate(196.34,302.00) scale(0.010742,-0.010742)" fill="#1a3a52" /><path d="M1164 0 798 585H359V0H168V1409H831Q1069 1409 1198.5 1302.5Q1328 1196 1328 1006Q1328 849 1236.5 742.0Q1145 635 984 607L1384 0ZM1136 1004Q1136 1127 1052.5 1191.5Q969 1256 812 1256H359V736H820Q971 736 1053.5 806.5Q1136 877 1136 1004Z" transform="translate(218.01,302.00) scale(0.010742,-0.010742)" fill="#1a3a52" /><path d="M189 0V1409H380V0Z" transform="translate(240.90,302.00) scale(0.010742,-0.010742)" fill="#1a3a52" /><path d="M1272 389Q1272 194 1119.5 87.0Q967 -20 690 -20Q175 -20 93 338L278 375Q310 248 414.0 188.5Q518 129 697 129Q882 129 982.5 192.5Q1083 256 1083 379Q1083 448 1051.5 491.0Q1020 534 963.0 562.0Q906 590 827.0 609.0Q748 628 652 650Q485 687 398.5 724.0Q312 761 262.0 806.5Q212 852 185.5 913.0Q159 974 159 1053Q159 1234 297.5 1332.0Q436 1430 694 1430Q934 1430 1061.0 1356.5Q1188 1283 1239 1106L1051 1073Q1020 1185 933.0 1235.5Q846 1286 692 1286Q523 1286 434.0 1230.0Q345 1174 345 1063Q345 998 379.5 955.5Q414 913 479.0 883.5Q544 854 738 811Q803 796 867.5 780.5Q932 765 991.0 743.5Q1050 722 1101.5 693.0Q1153 664 1191.0 622.0Q1229 580 1250.5 523.0Q1272 466 1272 389Z" transform="translate(254.01,302.00) scale(0.010742,-0.010742)" fill="#1a3a52" /></g><g id="advisor-text"><path d="M1167 0 1006 412H364L202 0H4L579 1409H796L1362 0ZM685 1265 676 1237Q651 1154 602 1024L422 561H949L768 1026Q740 1095 712 1182Z" transform="translate(159.49,327.00) scale(0.006836,-0.006836)" fill="#5a6c7d" /><path d="M1381 719Q1381 501 1296.0 337.5Q1211 174 1055.0 87.0Q899 0 695 0H168V1409H634Q992 1409 1186.5 1229.5Q1381 1050 1381 719ZM1189 719Q1189 981 1045.5 1118.5Q902 1256 630 1256H359V153H673Q828 153 945.5 221.0Q1063 289 1126.0 417.0Q1189 545 1189 719Z" transform="translate(171.83,327.00) scale(0.006836,-0.006836)" fill="#5a6c7d" /><path d="M782 0H584L9 1409H210L600 417L684 168L768 417L1156 1409H1357Z" transform="translate(184.94,327.00) scale(0.006836,-0.006836)" fill="#5a6c7d" /><path d="M189 0V1409H380V0Z" transform="translate(197.28,327.00) scale(0.006836,-0.006836)" fill="#5a6c7d" /><path d="M1272 389Q1272 194 1119.5 87.0Q967 -20 690 -20Q175 -20 93 338L278 375Q310 248 414.0 188.5Q518 129 697 129Q882 129 982.5 192.5Q1083 256 1083 379Q1083 448 1051.5 491.0Q1020 534 963.0 562.0Q906 590 827.0 609.0Q748 628 652 650Q485 687 398.5 724.0Q312 761 262.0 806.5Q212 852 185.5 913.0Q159 974 159 1053Q159 1234 297.5 1332.0Q436 1430 694 1430Q934 1430 1061.0 1356.5Q1188 1283 1239 1106L1051 1073Q1020 1185 933.0 1235.5Q846 1286 692 1286Q523 1286 434.0 1230.0Q345 1174 345 1063Q345 998 379.5 955.5Q414 913 479.0 883.5Q544 854 738 811Q803 796 867.5 780.5Q932 765 991.0 743.5Q1050 722 1101.5 693.0Q1153 664 1191.0 622.0Q1229 580 1250.5 523.0Q1272 466 1272 389Z" transform="translate(204.17,327.00) scale(0.006836,-0.006836)" fill="#5a6c7d" /><path d="M1495 711Q1495 490 1410.5 324.0Q1326 158 1168.0 69.0Q1010 -20 795 -20Q578 -20 420.5 68.0Q263 156 180.0 322.5Q97 489 97 711Q97 1049 282.0 1239.5Q467 1430 797 1430Q1012 1430 1170.0 1344.5Q1328 1259 1411.5 1096.0Q1495 933 1495 711ZM1300 711Q1300 974 1168.5 1124.0Q1037 1274 797 1274Q555 1274 423.0 1126.0Q291 978 291 711Q291 446 424.5 290.5Q558 135 795 135Q1039 135 1169.5 285.5Q1300 436 1300 711Z" transform="translate(216.51,327.00) scale(0.006836,-0.006836)" fill="#5a6c7d" /><path d="M1164 0 798 585H359V0H168V1409H831Q1069 1409 1198.5 1302.5Q1328 1196 1328 1006Q1328 849 1236.5 742.0Q1145 635 984 607L1384 0ZM1136 1004Q1136 1127 1052.5 1191.5Q969 1256 812 1256H359V736H820Q971 736 1053.5 806.5Q1136 877 1136 1004Z" transform="translate(230.40,327.00) scale(0.006836,-0.006836)" fill="#5a6c7d" /></g></svg>