<svg xmlns="http://www.w3.org/2000/svg" viewBox="0 0 1200 630" width="1200" height="630">
  <defs>
    <linearGradient id="bg" x1="0" y1="0" x2="1" y2="1">
      <stop offset="0%" stop-color="#eef3f9"/>
      <stop offset="50%" stop-color="#d7e4f0"/>
      <stop offset="100%" stop-color="#c2d3e4"/>
    </linearGradient>
    <linearGradient id="bar" x1="0" y1="0" x2="1" y2="0">
      <stop offset="0%" stop-color="#9db6cc"/>
      <stop offset="100%" stop-color="#8aa6bf"/>
    </linearGradient>
  </defs>
  <rect width="1200" height="630" fill="url(#bg)"/>
  <rect x="0" y="470" width="1200" height="160" fill="url(#bar)" opacity="0.85"/>
  <circle cx="920" cy="220" r="220" fill="#c8d9ea" opacity="0.7"/>
  <circle cx="1060" cy="380" r="170" fill="#b5cbe0" opacity="0.55"/>

  <g transform="translate(60,131) scale(1.2)">
    <path d="M 60 280 L 140 120" stroke="#0b1722" stroke-width="5" fill="none" stroke-linecap="round"/>
    <path d="M 220 280 L 140 120" stroke="#0b1722" stroke-width="5" fill="none" stroke-linecap="round"/>
    <polygon points="140,70 144,110 140,120 136,110" fill="#0b1722"/>
    <polygon points="140,170 144,130 140,120 136,130" fill="#0b1722"/>
    <polygon points="90,120 132,117 140,120 132,123" fill="#0b1722"/>
    <polygon points="190,120 148,117 140,120 148,123" fill="#0b1722"/>
    <circle cx="140" cy="120" r="6" fill="#2a4c66"/>
    <circle cx="140" cy="120" r="3" fill="#ffffff"/>
    <path d="M 40 230 Q 90 190 140 210 Q 190 230 240 190" stroke="#0b1722" stroke-width="3.5" fill="none" stroke-linecap="round"/>
    <g id="wordmark" transform="translate(0,-6)">
    <g id="polaris-text">
      <path d="M1296 963Q1296 827 1234.0 720.0Q1172 613 1056.5 554.5Q941 496 782 496H432V0H137V1409H770Q1023 1409 1159.5 1292.5Q1296 1176 1296 963ZM999 958Q999 1180 737 1180H432V723H745Q867 723 933.0 783.5Q999 844 999 958Z" transform="translate(260.00,235.00) scale(0.068359,-0.068359)" fill="#1b3344"/>
      <path d="M1171 542Q1171 279 1025.0 129.5Q879 -20 621 -20Q368 -20 224.0 130.0Q80 280 80 542Q80 803 224.0 952.5Q368 1102 627 1102Q892 1102 1031.5 957.5Q1171 813 1171 542ZM877 542Q877 735 814.0 822.0Q751 909 631 909Q375 909 375 542Q375 361 437.5 266.5Q500 172 618 172Q877 172 877 542Z" transform="translate(352.38,235.00) scale(0.068359,-0.068359)" fill="#1b3344"/>
      <path d="M143 0V1484H424V0Z" transform="translate(436.90,235.00) scale(0.068359,-0.068359)" fill="#1b3344"/>
      <path d="M393 -20Q236 -20 148.0 65.5Q60 151 60 306Q60 474 169.5 562.0Q279 650 487 652L720 656V711Q720 817 683.0 868.5Q646 920 562 920Q484 920 447.5 884.5Q411 849 402 767L109 781Q136 939 253.5 1020.5Q371 1102 574 1102Q779 1102 890.0 1001.0Q1001 900 1001 714V320Q1001 229 1021.5 194.5Q1042 160 1090 160Q1122 160 1152 166V14Q1127 8 1107.0 3.0Q1087 -2 1067.0 -5.0Q1047 -8 1024.5 -10.0Q1002 -12 972 -12Q866 -12 815.5 40.0Q765 92 755 193H749Q631 -20 393 -20ZM720 501 576 499Q478 495 437.0 477.5Q396 460 374.5 424.0Q353 388 353 328Q353 251 388.5 213.5Q424 176 483 176Q549 176 603.5 212.0Q658 248 689.0 311.5Q720 375 720 446Z" transform="translate(474.79,235.00) scale(0.068359,-0.068359)" fill="#1b3344"/>
      <path d="M143 0V828Q143 917 140.5 976.5Q138 1036 135 1082H403Q406 1064 411.0 972.5Q416 881 416 851H420Q461 965 493.0 1011.5Q525 1058 569.0 1080.5Q613 1103 679 1103Q733 1103 766 1088V853Q698 868 646 868Q541 868 482.5 783.0Q424 698 424 531V0Z" transform="translate(551.65,235.00) scale(0.068359,-0.068359)" fill="#1b3344"/>
      <path d="M143 1277V1484H424V1277ZM143 0V1082H424V0Z" transform="translate(605.14,235.00) scale(0.068359,-0.068359)" fill="#1b3344"/>
      <path d="M1055 316Q1055 159 926.5 69.5Q798 -20 571 -20Q348 -20 229.5 50.5Q111 121 72 270L319 307Q340 230 391.5 198.0Q443 166 571 166Q689 166 743.0 196.0Q797 226 797 290Q797 342 753.5 372.5Q710 403 606 424Q368 471 285.0 511.5Q202 552 158.5 616.5Q115 681 115 775Q115 930 234.5 1016.5Q354 1103 573 1103Q766 1103 883.5 1028.0Q1001 953 1030 811L781 785Q769 851 722.0 883.5Q675 916 573 916Q473 916 423.0 890.5Q373 865 373 805Q373 758 411.5 730.5Q450 703 541 685Q668 659 766.5 631.5Q865 604 924.5 566.0Q984 528 1019.5 468.5Q1055 409 1055 316Z" transform="translate(643.03,235.00) scale(0.068359,-0.068359)" fill="#1b3344"/>
    </g>
    <g id="advisor-text">
      <path d="M1167 0 1006 412H364L202 0H4L579 1409H796L1362 0ZM685 1265 676 1237Q651 1154 602 1024L422 561H949L768 1026Q740 1095 712 1182Z" transform="translate(260.00,288.00) scale(0.024414,-0.024414)" fill="#3d5a73"/>
      <path d="M1381 719Q1381 501 1296.0 337.5Q1211 174 1055.0 87.0Q899 0 695 0H168V1409H634Q992 1409 1186.5 1229.5Q1381 1050 1381 719ZM1189 719Q1189 981 1045.5 1118.5Q902 1256 630 1256H359V153H673Q828 153 945.5 221.0Q1063 289 1126.0 417.0Q1189 545 1189 719Z" transform="translate(298.35,288.00) scale(0.024414,-0.024414)" fill="#3d5a73"/>
      <path d="M782 0H584L9 1409H210L600 417L684 168L768 417L1156 1409H1357Z" transform="translate(339.46,288.00) scale(0.024414,-0.024414)" fill="#3d5a73"/>
      <path d="M189 0V1409H380V0Z" transform="translate(377.81,288.00) scale(0.024414,-0.024414)" fill="#3d5a73"/>
      <path d="M1272 389Q1272 194 1119.5 87.0Q967 -20 690 -20Q175 -20 93 338L278 375Q310 248 414.0 188.5Q518 129 697 129Q882 129 982.5 192.5Q1083 256 1083 379Q1083 448 1051.5 491.0Q1020 534 963.0 562.0Q906 590 827.0 609.0Q748 628 652 650Q485 687 398.5 724.0Q312 761 262.0 806.5Q212 852 185.5 913.0Q159 974 159 1053Q159 1234 297.5 1332.0Q436 1430 694 1430Q934 1430 1061.0 1356.5Q1188 1283 1239 1106L1051 1073Q1020 1185 933.0 1235.5Q846 1286 692 1286Q523 1286 434.0 1230.0Q345 1174 345 1063Q345 998 379.5 955.5Q414 913 479.0 883.5Q544 854 738 811Q803 796 867.5 780.5Q932 765 991.0 743.5Q1050 722 1101.5 693.0Q1153 664 1191.0 622.0Q1229 580 1250.5 523.0Q1272 466 1272 389Z" transform="translate(396.70,288.00) scale(0.024414,-0.024414)" fill="#3d5a73"/>
      <path d="M1495 711Q1495 490 1410.5 324.0Q1326 158 1168.0 69.0Q1010 -20 795 -20Q578 -20 420.5 68.0Q263 156 180.0 322.5Q97 489 97 711Q97 1049 282.0 1239.5Q467 1430 797 1430Q1012 1430 1170.0 1344.5Q1328 1259 1411.5 1096.0Q1495 933 1495 711ZM1300 711Q1300 974 1168.5 1124.0Q1037 1274 797 1274Q555 1274 423.0 1126.0Q291 978 291 711Q291 446 424.5 290.5Q558 135 795 135Q1039 135 1169.5 285.5Q1300 436 1300 711Z" transform="translate(435.05,288.00) scale(0.024414,-0.024414)" fill="#3d5a73"/>
      <path d="M1164 0 798 585H359V0H168V1409H831Q1069 1409 1198.5 1302.5Q1328 1196 1328 1006Q1328 849 1236.5 742.0Q1145 635 984 607L1384 0ZM1136 1004Q1136 1127 1052.5 1191.5Q969 1256 812 1256H359V736H820Q971 736 1053.5 806.5Q1136 877 1136 1004Z" transform="translate(478.94,288.00) scale(0.024414,-0.024414)" fill="#3d5a73"/>
    </g>
    </g>
  </g>
</svg>
